<?xml version="1.0" encoding="iso-8859-1"?>
<!-- Generator: Adobe Illustrator 21.0.0, SVG Export Plug-In . SVG Version: 6.00 Build 0)  -->
<svg xmlns="http://www.w3.org/2000/svg" xmlns:xlink="http://www.w3.org/1999/xlink" version="1.1" id="Capa_1" x="0px" y="0px" viewBox="0 0 511.992 511.992" style="enable-background:new 0 0 511.992 511.992;" xml:space="preserve" width="512" height="512">
<g>
	<path d="M204.628,367.065c-7.921,0-14.366,6.444-14.366,14.365c0,7.921,6.444,14.366,14.366,14.366   c7.921,0,14.366-6.444,14.366-14.366C218.993,373.509,212.549,367.065,204.628,367.065z"/>
	<path d="M307.374,367.065c-7.921,0-14.366,6.444-14.366,14.365c0,7.921,6.444,14.366,14.366,14.366   c7.921,0,14.365-6.444,14.365-14.366C321.739,373.509,315.295,367.065,307.374,367.065z"/>
	<path d="M465.831,403.585c-0.532-4.108-4.291-7.011-8.4-6.476c-4.108,0.531-7.007,4.292-6.476,8.4   c2.223,17.188,2.227,31.415,0.011,42.289c-5.271,25.868-31.626,47.916-58.751,49.147c-13.442,0.604-37.234-3.761-49.49-38.546   c27.622-24.181,45.097-59.681,45.097-99.189v-22.357c0-3.652-2.63-6.773-6.229-7.392c-56.261-9.673-94.901-66.428-95.282-66.995   c-3.28-4.909-10.958-4.12-13.181,1.337c-0.267,0.655-28.023,65.55-141.451,65.55c-4.142,0-7.5,3.358-7.5,7.5v22.357   c0,39.508,17.475,75.008,45.097,99.189c-12.257,34.784-36.056,39.148-49.49,38.546c-27.125-1.232-53.481-23.279-58.751-49.147   c-6.646-32.616,6.672-93.762,38.514-176.829c8.633-22.522,22.121-43.014,39.295-59.849c5.812,8.954,17.521,17.257,34.362,24.149   c3.787,1.549,8.234-0.319,9.782-4.1c1.569-3.834-0.267-8.213-4.101-9.782c-20.208-8.27-29.253-17.731-29.253-23.44V128.27   l103.225,47.624c1.977,0.912,4.307,0.912,6.284,0l103.225-47.624v69.675c0,12.743-41.423,37.111-106.367,37.111   c-17.137,0-33.84-1.772-49.645-5.268c-4.051-0.895-8.049,1.66-8.943,5.704c-0.894,4.044,1.659,8.048,5.704,8.943   c16.868,3.73,34.661,5.621,52.885,5.621c54.187,0,102.789-17.106,117.107-38.988c17.198,16.845,30.703,37.356,39.345,59.9   c15.556,40.581,26.771,76.157,33.336,105.738c0.885,3.989,4.957,6.583,8.947,5.697c4.043-0.898,6.594-4.903,5.697-8.947   c-6.724-30.3-18.155-66.589-33.974-107.857c-10.432-27.215-27.378-51.703-49.091-71.057V121.35l56.892-26.248   c2.657-1.226,4.358-3.884,4.358-6.81c0-2.926-1.701-5.584-4.358-6.81l-70.624-32.583c-3.76-1.736-8.217-0.093-9.952,3.668   c-1.735,3.761-0.093,8.217,3.668,9.952l55.863,25.773l-157.214,72.532L98.787,88.292L256.001,15.76l73.845,34.069   c3.761,1.736,8.217,0.093,9.952-3.668c1.735-3.761,0.093-8.217-3.668-9.952L259.143,0.69c-1.994-0.92-4.29-0.92-6.284,0   L77.742,81.482c-2.62,1.208-4.358,3.925-4.358,6.81v80.792c0,4.087,3.413,7.5,7.5,7.5c4.087,0,7.5-3.413,7.5-7.5v-69.072   l46.25,21.338v73.193c-21.714,19.355-38.66,43.843-49.091,71.057c-33.335,86.962-46.526,149.27-39.206,185.193   c6.669,32.732,38.633,59.586,72.769,61.137c0.859,0.039,1.789,0.063,2.783,0.063c14.938,0,44.191-5.342,59.796-43.966   c21.173,14.505,46.769,23.005,74.316,23.005s53.143-8.499,74.316-23.005c15.606,38.627,44.86,43.966,59.796,43.966   c0.993,0,1.925-0.023,2.783-0.063c34.136-1.55,66.1-28.405,72.769-61.137C468.211,438.297,468.267,422.414,465.831,403.585z    M139.179,359.21v-14.953c34.694-0.895,80.646-8.367,116.278-36.638c12.573-9.976,20.655-20.021,25.492-27.301   c13.796,17.188,46.723,52.38,91.872,62.681v16.211c0,64.415-52.406,116.821-116.821,116.821S139.179,423.625,139.179,359.21z"/>
</g>















</svg>
